<?xml version="1.0" standalone="no"?>
<!DOCTYPE svg PUBLIC "-//W3C//DTD SVG 20010904//EN"
 "http://www.w3.org/TR/2001/REC-SVG-20010904/DTD/svg10.dtd">
<svg version="1.0" xmlns="http://www.w3.org/2000/svg"
 width="323.000000pt" height="173.000000pt" viewBox="0 0 323.000000 173.000000"
 preserveAspectRatio="xMidYMid meet">

<g transform="translate(0.000000,173.000000) scale(0.100000,-0.100000)"
fill="#000000" stroke="none">
<path d="M742 1713 c-39 -19 -118 -103 -174 -186 -60 -89 -150 -284 -202 -437
-25 -74 -46 -130 -46 -123 0 7 9 82 20 166 45 350 44 495 -1 544 -29 30 -41
29 -83 -7 -95 -84 -209 -415 -190 -554 6 -46 38 -96 61 -96 32 1 40 40 8 40
-8 0 -19 18 -25 42 -30 108 52 376 157 516 17 23 29 30 36 23 18 -18 20 -156
2 -297 -9 -77 -27 -224 -40 -329 -43 -348 -60 -544 -47 -557 21 -21 38 12 51
102 37 263 176 673 302 897 56 99 173 223 211 223 32 0 38 -15 38 -93 0 -44
-10 -90 -34 -160 -38 -111 -70 -166 -204 -356 -52 -74 -95 -141 -96 -150 -2
-29 35 -23 79 13 115 95 207 99 252 13 18 -35 30 -213 16 -234 -4 -6 -62 -42
-128 -79 -165 -93 -290 -178 -351 -239 -160 -159 -138 -340 41 -340 145 0 312
147 411 360 30 66 47 120 78 247 4 18 29 44 72 76 36 27 94 77 128 111 l64 61
5 -29 c6 -31 34 -44 60 -30 9 5 30 35 48 66 l33 57 8 -31 c10 -38 61 -83 94
-83 29 0 60 14 90 42 l21 19 12 -46 c13 -50 52 -95 83 -95 36 0 86 31 133 81
25 27 47 49 49 49 2 0 6 -44 8 -97 5 -104 19 -149 50 -159 36 -11 70 37 140
194 l21 47 8 -32 c10 -33 60 -83 85 -83 35 0 83 32 138 91 34 37 61 59 64 51
2 -7 11 -19 19 -28 24 -24 51 1 109 102 28 48 56 90 61 91 5 2 13 -11 18 -29
15 -49 47 -49 97 -1 l40 38 -7 -98 c-17 -234 70 -297 188 -136 26 36 31 38 46
25 30 -28 70 -37 111 -26 43 12 153 89 169 119 20 36 -7 32 -54 -9 -87 -75
-156 -98 -188 -62 -26 29 -21 58 12 72 36 14 76 56 90 92 8 22 7 31 -6 43 -39
40 -129 -32 -157 -126 -18 -64 -97 -169 -125 -169 -30 0 -36 32 -36 185 0 132
-1 140 -20 143 -13 2 -38 -15 -70 -44 l-50 -47 -6 32 c-4 18 -14 40 -22 48
-23 24 -50 2 -103 -84 -57 -93 -53 -87 -59 -82 -2 3 3 38 11 78 16 75 11 97
-19 86 -18 -7 -47 -74 -47 -109 0 -26 -89 -137 -140 -175 -84 -62 -113 -9 -95
177 7 79 6 84 -11 80 -25 -4 -43 -45 -51 -110 -9 -75 -122 -308 -149 -308 -41
0 -26 294 27 520 32 142 34 160 15 160 -8 0 -22 -10 -30 -23 -19 -28 -51 -165
-66 -277 -10 -77 -15 -90 -54 -140 -24 -30 -65 -68 -91 -85 l-47 -29 -18 21
c-24 30 -32 96 -20 168 15 88 13 105 -9 105 -20 0 -35 -30 -46 -90 -9 -47 -29
-77 -68 -100 -67 -41 -97 -21 -108 72 -4 32 -9 62 -13 65 -13 14 -37 -11 -76
-77 -23 -39 -44 -69 -47 -66 -10 10 28 103 58 139 34 41 48 45 83 21 17 -11
26 -12 31 -4 11 18 -35 60 -66 60 -35 0 -93 -49 -119 -99 -25 -49 -267 -281
-293 -281 -2 0 -7 37 -9 83 -7 96 -29 157 -69 192 -41 34 -88 41 -145 21 -26
-9 -49 -16 -52 -16 -2 0 26 42 61 93 173 248 238 484 160 578 -28 33 -53 36
-101 12z m2233 -645 c-7 -19 -65 -62 -72 -54 -3 3 11 22 31 42 36 36 52 41 41
12z m-2155 -446 c0 -60 -91 -262 -158 -351 -94 -124 -226 -198 -308 -171 -128
43 -54 220 149 359 56 38 299 180 310 180 4 1 7 -7 7 -17z"/>
<path d="M1574 1285 c-8 -34 1 -55 25 -55 26 0 41 29 30 58 -12 31 -47 29 -55
-3z"/>
<path d="M2064 1285 c-8 -33 1 -55 24 -55 31 0 47 26 34 55 -15 33 -50 33 -58
0z"/>
</g>
</svg>
